<svg width="92" height="92" viewBox="0 0 92 92" fill="none" xmlns="http://www.w3.org/2000/svg">
<g clip-path="url(#clip0_130_62)">
<rect x="0.745178" y="46" width="64" height="64" rx="20" transform="rotate(-45 0.745178 46)" fill="white"/>
<path d="M23.573 58.92C23.4663 58.8773 23.3917 58.8133 23.349 58.728C23.3063 58.6427 23.2637 58.472 23.221 58.216C23.221 57.9813 23.157 57.8107 23.029 57.704C22.901 57.5973 22.6557 57.5013 22.293 57.416C22.0583 57.1813 21.8663 56.9147 21.717 56.616C21.5677 56.296 21.4503 55.7947 21.365 55.112C21.2797 54.408 21.1943 53.3733 21.109 52.008C21.1517 51.2613 21.1837 50.632 21.205 50.12C21.2477 49.608 21.2903 49.128 21.333 48.68C21.3757 48.232 21.4183 47.752 21.461 47.24C21.525 46.728 21.6103 46.088 21.717 45.32C21.6743 44.8293 21.6957 44.296 21.781 43.72C21.8877 43.144 21.909 42.6853 21.845 42.344C21.9943 41.8747 22.0903 41.3413 22.133 40.744C22.1757 40.1253 22.2717 39.5813 22.421 39.112C22.4637 38.7493 22.5063 38.408 22.549 38.088C22.613 37.768 22.645 37.5013 22.645 37.288C22.6023 36.8613 22.645 36.4133 22.773 35.944C22.9223 35.4747 23.2317 35.1333 23.701 34.92C23.829 34.8773 23.9997 34.856 24.213 34.856C24.4477 34.856 24.629 34.8773 24.757 34.92C25.0983 35.0693 25.2903 35.304 25.333 35.624C25.397 35.944 25.4183 36.2213 25.397 36.456C25.4397 36.6907 25.461 37.096 25.461 37.672C25.4823 38.248 25.461 38.888 25.397 39.592C25.3543 40.2747 25.2583 40.9467 25.109 41.608C24.9383 42.4827 24.7997 43.3787 24.693 44.296C24.6077 45.192 24.5437 46.0773 24.501 46.952C24.4157 48.7013 24.3303 50.152 24.245 51.304C24.1597 52.456 24.149 53.288 24.213 53.8C24.213 53.864 24.213 53.96 24.213 54.088C24.2343 54.1947 24.2663 54.2907 24.309 54.376C24.3517 54.44 24.405 54.472 24.469 54.472C24.5543 54.4507 24.6183 54.3867 24.661 54.28C24.725 54.1733 24.789 54.0133 24.853 53.8C24.9383 53.5867 25.045 53.3413 25.173 53.064C25.4503 52.5307 25.7277 51.9547 26.005 51.336C26.3037 50.696 26.5597 50.088 26.773 49.512C27.157 48.616 27.541 47.848 27.925 47.208C28.309 46.568 28.6717 45.8533 29.013 45.064C29.141 44.7227 29.365 44.232 29.685 43.592C30.0263 42.9307 30.3463 42.3227 30.645 41.768C31.0077 41.2133 31.349 40.68 31.669 40.168C32.0103 39.656 32.405 38.9733 32.853 38.12C33.4717 37.096 34.005 36.3493 34.453 35.88C34.901 35.3893 35.2957 35.144 35.637 35.144C35.8717 35.1013 36.0637 35.1013 36.213 35.144C36.3837 35.1653 36.5437 35.2827 36.693 35.496C36.8637 35.7307 36.9703 35.9973 37.013 36.296C37.0557 36.5947 36.981 36.9787 36.789 37.448C36.6183 37.9173 36.2557 38.5467 35.701 39.336C35.2743 39.976 34.7943 40.7227 34.261 41.576C33.749 42.4293 33.269 43.24 32.821 44.008C32.3943 44.7547 32.085 45.3093 31.893 45.672C31.7863 45.9067 31.6903 46.152 31.605 46.408C31.5197 46.664 31.3917 46.8987 31.221 47.112C31.0077 47.3253 30.7197 47.784 30.357 48.488C29.9943 49.192 29.6423 49.8853 29.301 50.568C28.917 51.464 28.6077 52.168 28.373 52.68C28.1597 53.1707 27.9783 53.576 27.829 53.896C27.701 54.216 27.573 54.5253 27.445 54.824C27.317 55.1227 27.157 55.496 26.965 55.944C26.8583 56.3067 26.709 56.616 26.517 56.872C26.3463 57.128 26.2503 57.32 26.229 57.448C26.0797 57.6827 25.813 57.928 25.429 58.184C25.0663 58.44 24.7037 58.6427 24.341 58.792C23.9783 58.9413 23.7223 58.984 23.573 58.92ZM51.8597 58.184C51.8597 58.184 51.7957 58.12 51.6677 57.992C51.5611 57.8853 51.3264 57.7467 50.9637 57.576C50.5797 57.1707 50.3237 56.552 50.1957 55.72C50.0891 54.888 50.0677 53.96 50.1317 52.936C50.0891 52.424 50.0891 51.7947 50.1317 51.048C50.1957 50.28 50.2811 49.4907 50.3877 48.68C50.5157 47.8693 50.6437 47.0907 50.7717 46.344C50.9211 45.5973 51.0491 44.9787 51.1557 44.488C51.4331 43.3573 51.6784 42.3653 51.8917 41.512C52.1264 40.6587 52.2437 40.1573 52.2437 40.008C52.1157 40.2427 51.9237 40.5733 51.6677 41C51.4331 41.4267 51.0917 42.0347 50.6437 42.824C50.3664 43.272 50.0677 43.7627 49.7477 44.296C49.4491 44.8293 49.2571 45.1493 49.1717 45.256C48.9584 45.5333 48.7451 45.9173 48.5317 46.408C48.3184 46.8773 47.9664 47.5813 47.4757 48.52C46.7291 49.6293 46.0891 50.472 45.5557 51.048C45.0437 51.624 44.5851 52.008 44.1797 52.2C43.7957 52.3707 43.4117 52.424 43.0277 52.36C42.4091 52.2107 41.9931 51.9227 41.7797 51.496C41.5664 51.048 41.4171 50.536 41.3317 49.96C41.2891 49.384 41.2784 48.9147 41.2997 48.552C41.3424 48.168 41.3424 47.8907 41.2997 47.72C41.3424 47.5067 41.3851 47.2827 41.4277 47.048C41.4704 46.792 41.5024 46.6 41.5237 46.472C41.5237 46.3867 41.5451 46.1947 41.5877 45.896C41.6517 45.5973 41.6944 45.2987 41.7157 45C41.7797 44.5947 41.8651 44.1253 41.9717 43.592C42.0784 43.0373 42.1744 42.536 42.2597 42.088C42.3451 41.64 42.3664 41.3627 42.3237 41.256C42.2171 41.4693 42.0891 41.6933 41.9397 41.928C41.7904 42.1627 41.6837 42.3333 41.6197 42.44C41.2571 42.9307 40.8304 43.688 40.3397 44.712C39.8491 45.7147 39.1877 47.0693 38.3557 48.776C38.2917 49.2453 38.0997 49.8427 37.7797 50.568C37.4811 51.272 37.2144 51.9013 36.9797 52.456C36.8304 52.8613 36.6277 53.3733 36.3717 53.992C36.1371 54.5893 35.8917 55.1547 35.6357 55.688C35.4011 56.2213 35.2091 56.5947 35.0597 56.808C34.8037 57.2987 34.5904 57.5653 34.4197 57.608C34.2491 57.672 33.8971 57.5013 33.3637 57.096C33.0224 56.776 32.7344 56.4667 32.4997 56.168C32.2864 55.8693 32.2864 55.5173 32.4997 55.112C32.6491 54.8773 32.8304 54.5573 33.0437 54.152C33.2571 53.7253 33.4491 53.2987 33.6197 52.872C33.8117 52.4453 33.9184 52.1253 33.9397 51.912C33.9611 51.8267 34.0251 51.6773 34.1317 51.464C34.2597 51.2507 34.4304 51.016 34.6437 50.76C34.6224 50.6747 34.7184 50.3547 34.9317 49.8C35.1451 49.224 35.4331 48.5733 35.7957 47.848C35.8597 47.7413 35.9024 47.6347 35.9237 47.528C35.9664 47.4213 35.9984 47.3147 36.0197 47.208C36.1051 47.1013 36.1904 46.9733 36.2757 46.824C36.3611 46.6747 36.4464 46.4613 36.5317 46.184C36.5744 45.992 36.6597 45.7467 36.7877 45.448C36.9157 45.1493 37.0331 44.8827 37.1397 44.648C37.2251 44.456 37.3211 44.296 37.4277 44.168C37.5557 44.0187 37.6624 43.8693 37.7477 43.72C37.8331 43.656 37.9077 43.5493 37.9717 43.4C38.0357 43.2507 38.1104 43.1333 38.1957 43.048C38.2811 42.792 38.4411 42.472 38.6757 42.088C38.9317 41.6827 39.1984 41.2347 39.4757 40.744C39.7744 40.2533 40.0304 39.7627 40.2437 39.272C40.4144 39.1653 40.5637 39.016 40.6917 38.824C40.8197 38.632 40.9264 38.4293 41.0117 38.216C41.0117 38.216 41.0651 38.0987 41.1717 37.864C41.2997 37.6293 41.4277 37.4267 41.5557 37.256C41.6624 37.1067 41.8224 36.8933 42.0357 36.616C42.2491 36.3387 42.4517 36.0827 42.6437 35.848C42.8571 35.592 42.9957 35.4533 43.0597 35.432C43.1877 35.4107 43.4117 35.4747 43.7317 35.624C44.0731 35.7733 44.3824 35.9547 44.6597 36.168C44.9371 36.3813 45.0757 36.5947 45.0757 36.808C45.1184 37.0427 45.1291 37.384 45.1077 37.832C45.1077 38.28 45.0971 38.7387 45.0757 39.208C45.0544 39.656 45.0117 40.04 44.9477 40.36C44.9051 40.8293 44.8411 41.3733 44.7557 41.992C44.6704 42.6107 44.5851 43.208 44.4997 43.784C44.4144 44.36 44.3397 44.8293 44.2757 45.192C44.1691 45.9813 44.0837 46.5787 44.0197 46.984C43.9557 47.368 43.9237 47.56 43.9237 47.56C43.9664 47.6453 43.9877 47.7627 43.9877 47.912C44.0091 48.0613 44.0304 48.2 44.0517 48.328L44.0837 48.584L44.4357 48.072C44.8197 47.5813 45.1184 47.1547 45.3317 46.792C45.5451 46.4293 45.7584 46.0773 45.9717 45.736C45.9717 45.6293 46.0037 45.5227 46.0677 45.416C46.1317 45.288 46.2064 45.16 46.2917 45.032C46.4197 44.9253 46.5584 44.7547 46.7077 44.52C46.8571 44.264 46.9211 44.04 46.8997 43.848C47.1131 43.528 47.3904 43.1013 47.7317 42.568C48.0944 42.0347 48.4784 41.4587 48.8837 40.84C49.2891 40.2 49.6837 39.592 50.0677 39.016C50.4731 38.4187 50.8251 37.9067 51.1237 37.48C51.4437 37.0533 51.6784 36.776 51.8277 36.648C52.2971 36.3493 52.8197 36.2 53.3957 36.2C53.9717 36.1787 54.4304 36.3493 54.7717 36.712C55.0491 37.0107 55.1984 37.352 55.2197 37.736C55.2624 38.12 55.2197 38.5147 55.0917 38.92C54.8144 39.8373 54.6224 40.6907 54.5157 41.48C54.4091 42.2693 54.3664 42.8133 54.3877 43.112C54.3024 43.304 54.2277 43.5173 54.1637 43.752C54.1211 43.9653 54.0891 44.1573 54.0677 44.328C54.0677 44.5413 54.0251 44.7653 53.9397 45C53.8757 45.2133 53.7904 45.3627 53.6837 45.448C53.7477 45.64 53.7797 45.896 53.7797 46.216C53.8011 46.5147 53.7904 46.792 53.7477 47.048C53.4064 49.224 53.2251 50.9627 53.2037 52.264C53.1824 53.544 53.2571 54.472 53.4277 55.048C53.5984 55.6027 53.7797 55.9013 53.9717 55.944C54.0571 55.9227 54.0997 55.9547 54.0997 56.04C54.1211 56.1253 54.1104 56.2533 54.0677 56.424C54.0677 56.5947 53.9824 56.7867 53.8117 57C53.6624 57.2347 53.5024 57.4373 53.3317 57.608C53.1824 57.8 53.0864 57.928 53.0437 57.992C52.9157 58.2053 52.7984 58.3227 52.6917 58.344C52.6064 58.3653 52.3291 58.312 51.8597 58.184ZM61.5082 59.208C60.5909 59.1653 59.8229 59.0373 59.2042 58.824C58.5856 58.6107 57.8816 58.2373 57.0922 57.704C57.0069 57.5547 56.9002 57.3093 56.7722 56.968C56.6442 56.6053 56.5162 56.2213 56.3882 55.816C56.2602 55.4107 56.1536 55.0587 56.0682 54.76C56.0042 54.44 55.9829 54.248 56.0042 54.184C56.0896 54.0773 56.1322 53.9493 56.1322 53.8C56.1322 53.6293 56.1216 53.5013 56.1002 53.416C56.0149 53.096 56.0789 52.5307 56.2922 51.72C56.5056 50.9093 56.8362 49.896 57.2842 48.68C57.7536 47.464 58.3082 46.12 58.9482 44.648C59.3536 43.7733 59.8976 42.824 60.5802 41.8C61.2629 40.776 61.9989 39.7947 62.7882 38.856C63.5989 37.896 64.3882 37.0747 65.1562 36.392C65.9242 35.688 66.5749 35.2187 67.1082 34.984C67.4709 34.8347 67.8016 34.76 68.1002 34.76C68.3989 34.7387 68.7082 34.7493 69.0282 34.792C69.6042 34.8773 70.1482 35.08 70.6602 35.4C71.1722 35.6987 71.5989 36.1147 71.9402 36.648C72.3029 37.2027 72.5376 37.8213 72.6442 38.504C72.7509 39.1867 72.7829 39.848 72.7402 40.488C72.6976 41.128 72.6122 41.6613 72.4842 42.088C72.3562 42.4293 72.2282 42.6853 72.1002 42.856C71.9722 43.0053 71.7802 43.1013 71.5242 43.144C71.4389 43.1653 71.1936 43.1227 70.7882 43.016C70.4042 42.888 70.0949 42.76 69.8602 42.632C69.6042 42.4613 69.4336 42.2907 69.3482 42.12C69.2842 41.928 69.2522 41.832 69.2522 41.832C69.2522 41.832 69.2629 41.704 69.2842 41.448C69.3269 41.1707 69.3909 40.904 69.4762 40.648C69.7749 39.6667 69.8816 38.9627 69.7962 38.536C69.7109 38.1093 69.4229 37.8107 68.9322 37.64C68.4629 37.6187 67.8869 37.9067 67.2042 38.504C66.5216 39.1013 65.8496 39.784 65.1882 40.552C64.2282 41.7253 63.4069 42.8773 62.7242 44.008C62.0416 45.1387 61.4336 46.3653 60.9002 47.688C60.4309 49.0533 60.0576 50.2053 59.7802 51.144C59.5242 52.0613 59.3536 52.7973 59.2682 53.352C59.3109 53.6293 59.3322 53.864 59.3322 54.056C59.3536 54.2267 59.3216 54.312 59.2362 54.312C59.2789 54.568 59.3642 54.8667 59.4922 55.208C59.6202 55.5493 59.8869 55.8693 60.2922 56.168C60.3776 56.2533 60.5056 56.328 60.6762 56.392C60.8469 56.4347 61.0389 56.4453 61.2522 56.424C61.5936 56.4027 61.9456 56.3493 62.3082 56.264C62.6922 56.1787 63.0336 56.0827 63.3322 55.976C63.6522 55.848 63.8762 55.7307 64.0042 55.624C64.0042 55.624 64.1002 55.6133 64.2922 55.592C64.4842 55.5493 64.7189 55.464 64.9962 55.336C65.1882 55.2293 65.4336 55.112 65.7322 54.984C66.0309 54.856 66.3616 54.7173 66.7242 54.568C67.3642 54.2693 67.8976 54.12 68.3242 54.12C68.7722 54.12 69.1349 54.1627 69.4122 54.248C69.4122 54.248 69.3802 54.3973 69.3162 54.696C69.2736 54.9947 69.2096 55.2613 69.1242 55.496C69.0176 55.6453 68.8789 55.8267 68.7082 56.04C68.5589 56.232 68.3562 56.424 68.1002 56.616C67.8442 56.808 67.5242 56.9893 67.1402 57.16C67.0336 57.1813 66.8629 57.2453 66.6282 57.352C66.3936 57.48 66.1376 57.6293 65.8602 57.8C65.2629 58.1627 64.6122 58.472 63.9082 58.728C63.2256 58.984 62.4256 59.144 61.5082 59.208Z" fill="#FF5C35"/>
</g>
<rect x="2.8665" y="46" width="61" height="61" rx="18.5" transform="rotate(-45 2.8665 46)" stroke="#FF5C35" stroke-width="3"/>
<defs>
<clipPath id="clip0_130_62">
<rect x="0.745178" y="46" width="64" height="64" rx="20" transform="rotate(-45 0.745178 46)" fill="white"/>
</clipPath>
</defs>
</svg>
